# 3ds Max Wavefront OBJ Exporter v0.97b - (c)2007 guruware
# File Created: 14.10.2015 01:11:49

mtllib 3d-model.mtl

#
# object Layer0_001
#

v  -1.3780 7.6772 -1.3780
v  -1.3780 7.6772 1.3780
v  1.3780 7.6772 1.3780
v  1.3780 7.6772 -1.3780
v  0.0000 8.5537 1.3780
v  0.0000 8.8490 1.3780
v  0.0000 8.8875 1.3767
v  0.0000 8.5537 -1.3780
v  0.0000 8.9254 1.3729
v  0.0000 8.9620 1.3667
v  0.0000 8.9966 1.3582
v  0.0000 9.0287 1.3474
v  0.0000 9.0578 1.3347
v  0.0000 9.0832 1.3202
v  0.0000 9.1047 1.3041
v  0.0000 9.1218 1.2868
v  0.0000 9.1342 1.2685
v  0.0000 9.1417 1.2496
v  0.0000 9.1443 1.2303
v  0.0000 9.1443 -0.0000
v  0.0000 9.1443 -0.9846
v  0.0000 9.1443 -1.2303
v  0.0000 9.1417 -1.2496
v  0.0000 9.1342 -1.2685
v  0.0000 9.1218 -1.2868
v  0.0000 9.1047 -1.3041
v  0.0000 9.0832 -1.3202
v  0.0000 9.0578 -1.3347
v  0.0000 9.0287 -1.3474
v  0.0000 8.9966 -1.3582
v  0.0000 8.9620 -1.3667
v  0.0000 8.9254 -1.3729
v  0.0000 8.8875 -1.3767
v  0.0000 8.8490 -1.3780
v  0.0000 8.3568 -0.3096
v  0.0000 8.3568 0.3096
v  -1.3780 0.0000 1.3780
v  -1.3780 0.0000 -1.3780
v  1.3780 0.0000 -1.3780
v  1.3780 0.0000 1.3780
v  1.3780 0.5906 1.3780
v  -1.3780 0.5906 1.3780
v  1.3780 7.0866 1.3780
v  -1.3780 7.0866 1.3780
v  -1.3780 0.5906 -1.3780
v  1.3780 0.5906 -1.3780
v  -1.3780 7.0866 -1.3780
v  1.3780 7.0866 -1.3780
# 48 vertices

vn 0.0000 1.0000 -0.0000
vn -1.0000 0.0000 0.0000
vn -0.0000 0.8438 -0.5367
vn -0.5304 -0.8337 -0.1537
vn 0.5304 -0.8337 -0.1537
vn 0.5304 -0.8337 0.1537
vn -0.5304 -0.8337 0.1537
vn 0.0000 0.8438 0.5367
vn 0.0000 -1.0000 -0.0000
vn -0.5367 0.8438 -0.0000
vn 0.0000 0.0000 1.0000
vn 0.0000 0.0000 -1.0000
vn -1.0000 0.0000 -0.0000
vn 1.0000 0.0000 -0.0000
vn 0.5367 0.8438 -0.0000
# 15 vertex normals

vt 0.0000 0.0000 0.0000
vt 1.0000 0.0225 0.0000
vt 1.0000 0.5050 0.0000
vt 0.9995 0.5680 0.0000
vt 0.0000 0.0225 0.0000
vt 0.9982 0.6299 0.0000
vt 0.9959 0.6897 0.0000
vt 0.9928 0.7463 0.0000
vt 0.9889 0.7988 0.0000
vt 0.9843 0.8463 0.0000
vt 0.9790 0.8879 0.0000
vt 0.9732 0.9229 0.0000
vt 0.9669 0.9509 0.0000
vt 0.9603 0.9712 0.0000
vt 0.9534 0.9835 0.0000
vt 0.9464 0.9876 0.0000
vt 0.5000 0.9876 0.0000
vt 0.1427 0.9876 0.0000
vt 0.0536 0.9876 0.0000
vt 0.0466 0.9835 0.0000
vt 0.0397 0.9712 0.0000
vt 0.0331 0.9509 0.0000
vt 0.0268 0.9229 0.0000
vt 0.0210 0.8879 0.0000
vt 0.0157 0.8463 0.0000
vt 0.0111 0.7988 0.0000
vt 0.0072 0.7463 0.0000
vt 0.0041 0.6897 0.0000
vt 0.0018 0.6299 0.0000
vt 0.0005 0.5680 0.0000
vt 0.0000 0.5050 0.0000
vt -0.0012 -0.0022 0.0000
vt 1.0000 0.0000 0.0000
vt 0.4989 1.0079 0.0000
vt -2.0035 2.0199 0.0000
vt -1.5122 3.0001 0.0000
vt -2.0000 3.0000 0.0000
vt 0.4964 3.9865 0.0000
vt 1.0101 2.9918 0.0000
vt 1.0000 4.0000 0.0000
vt -0.0000 5.0000 0.0000
vt -0.0080 4.0052 0.0000
vt 0.4963 4.9966 0.0000
vt 1.0000 2.0000 0.0000
vt 1.0000 3.0000 0.0000
vt 0.4849 2.9957 0.0000
vt 0.4939 0.9819 0.0000
vt -0.0014 0.0025 0.0000
vt 0.0000 1.0000 0.0000
vt 1.0000 1.0000 0.0000
vt 1.0000 0.0769 0.0000
vt 0.0000 0.0769 0.0000
vt 1.0000 0.9231 0.0000
vt 0.0000 0.9231 0.0000
vt 0.9934 0.0000 0.0000
vt 0.9934 0.0769 0.0000
vt 0.9934 0.9231 0.0000
vt 0.9934 1.0000 0.0000
vt 1.0000 0.9195 0.0000
vt 1.0000 0.9962 0.0000
vt 0.0000 0.9962 0.0000
vt 1.0000 0.0766 0.0000
vt 0.0000 0.9195 0.0000
vt 0.0000 0.0766 0.0000
# 64 texture coords

g Layer0_001
usemtl skp_front_default
s off
f 1/1/1 2/1/1 3/1/1 4/1/1 
usemtl P1200231_peps
f 5/2/2 6/3/2 7/4/2 8/5/2 
f 8/5/2 7/4/2 9/6/2 10/7/2 
f 8/5/2 10/7/2 11/8/2 12/9/2 
f 8/5/2 12/9/2 13/10/2 14/11/2 
f 8/5/2 14/11/2 15/12/2 16/13/2 
f 8/5/2 16/13/2 17/14/2 18/15/2 
f 8/5/2 18/15/2 19/16/2 20/17/2 
f 8/5/2 20/17/2 21/18/2 22/19/2 
f 8/5/2 22/19/2 23/20/2 24/21/2 
f 8/5/2 24/21/2 25/22/2 26/23/2 
f 8/5/2 26/23/2 27/24/2 28/25/2 
f 8/5/2 28/25/2 29/26/2 30/27/2 
f 8/5/2 30/27/2 31/28/2 32/29/2 
f 8/5/2 32/29/2 33/30/2 34/31/2 
usemtl P1200236_antishel
f 4/32/3 1/33/3 35/34/3 
f 4/35/4 35/36/4 8/37/4 
f 35/38/5 1/39/5 8/40/5 
usemtl P1200235_shel
f 5/41/6 2/42/6 36/43/6 
f 3/44/7 5/45/7 36/46/7 
f 3/33/8 36/47/8 2/48/8 
usemtl P1200230_dno
f 37/49/9 38/1/9 39/33/9 40/50/9 
usemtl P1200232_top_rus
f 1/1/10 2/33/10 5/50/10 8/49/10 
usemtl P1200229_ingridients
f 37/1/11 40/33/11 41/51/11 42/52/11 
f 42/52/11 41/51/11 43/53/11 44/54/11 
f 44/54/11 43/53/11 3/50/11 2/49/11 
usemtl P1200227_vaivars
f 39/1/12 38/55/12 45/56/12 46/52/12 
f 46/52/12 45/56/12 47/57/12 48/54/12 
f 48/54/12 47/57/12 1/58/12 4/49/12 
usemtl P1200226_rus_rjazh
f 44/59/13 2/60/13 1/61/13 42/62/13 
f 37/33/13 42/62/13 1/61/13 38/1/13 
f 38/1/13 1/61/13 47/63/13 45/64/13 
usemtl P1200228_lat_rjazh
f 41/52/14 40/1/14 39/33/14 43/54/14 
f 3/49/14 43/54/14 39/33/14 4/50/14 
f 4/50/14 39/33/14 46/51/14 48/53/14 
usemtl P1200233_top_lat
f 8/50/15 5/49/15 3/1/15 4/33/15 
# 30 polygons - 6 triangles

